HIERARCHY
ROOT root
{
	OFFSET	0	13.1	24.9
	CHANNELS 6  Xposition Yposition Zposition Xrotation Yrotation Zrotation
	JOINT spine_1
	{
		OFFSET	0	9.99999	0
		CHANNELS 3  Xrotation Yrotation Zrotation
		JOINT spine_2
		{
			OFFSET	0	112	-10
			CHANNELS 3  Xrotation Yrotation Zrotation
			JOINT spine_3
			{
				OFFSET	0	206.5	19.3
				CHANNELS 3  Xrotation Yrotation Zrotation
				JOINT spine_4
				{
					OFFSET	0	110.4	14.6
					CHANNELS 3  Xrotation Yrotation Zrotation
					JOINT neck_1
					{
						OFFSET	0	71.8	-50.3
						CHANNELS 3  Xrotation Yrotation Zrotation
						JOINT neck_2
						{
							OFFSET	0	86.2	-25.8
							CHANNELS 3  Xrotation Yrotation Zrotation
							JOINT head_ee
							{
								OFFSET	0	179.8	-8.7
								CHANNELS 3  Xrotation Yrotation Zrotation
								End Site
								{
									OFFSET	1	0	0
								}
							}
						}
					}
					JOINT left_clavicle
					{
						OFFSET	-43.2	22.4	-70.8
						CHANNELS 3  Xrotation Yrotation Zrotation
						JOINT left_shoulder
						{
							OFFSET	-93.9	-5.79999	48.7
							CHANNELS 3  Xrotation Yrotation Zrotation
							JOINT left_elbow
							{
								OFFSET	-291.4	-30.8	15.2
								CHANNELS 3  Xrotation Yrotation Zrotation
								JOINT left_lowarm_twist
								{
									OFFSET	-110.7	-3.89999	13.6
									CHANNELS 3  Xrotation Yrotation Zrotation
									JOINT left_hand
									{
										OFFSET	-110.7	-3.89999	13.6
										CHANNELS 3  Xrotation Yrotation Zrotation
										JOINT left_ee
										{
											OFFSET	-80.8	-5.10001	12.1
											CHANNELS 3  Xrotation Yrotation Zrotation
											End Site
											{
												OFFSET	1	0	0
											}
										}
									}
								}
							}
						}
					}
					JOINT right_clavicle
					{
						OFFSET	43.2	22.4	-70.8
						CHANNELS 3  Xrotation Yrotation Zrotation
						JOINT right_shoulder
						{
							OFFSET	93.9	-5.79999	48.7
							CHANNELS 3  Xrotation Yrotation Zrotation
							JOINT right_elbow
							{
								OFFSET	291.4	-30.8	15.2
								CHANNELS 3  Xrotation Yrotation Zrotation
								JOINT right_lowarm_twist
								{
									OFFSET	110.7	-3.89999	13.6
									CHANNELS 3  Xrotation Yrotation Zrotation
									JOINT right_hand
									{
										OFFSET	110.7	-3.89999	13.6
										CHANNELS 3  Xrotation Yrotation Zrotation
										JOINT right_ee
										{
											OFFSET	80.8	-5.10001	12.1
											CHANNELS 3  Xrotation Yrotation Zrotation
											End Site
											{
												OFFSET	1	0	0
											}
										}
									}
								}
							}
						}
					}
				}
			}
		}
	}
	JOINT left_hip
	{
		OFFSET	-82.8	-127.5	0.300001
		CHANNELS 3  Xrotation Yrotation Zrotation
		JOINT left_knee
		{
			OFFSET	-28.2	-396.7	2.2
			CHANNELS 3  Xrotation Yrotation Zrotation
			JOINT left_ankle
			{
				OFFSET	-11.7	-411.3	35.4
				CHANNELS 3  Xrotation Yrotation Zrotation
				JOINT left_toes
				{
					OFFSET	0	-60	-88.6
					CHANNELS 3  Xrotation Yrotation Zrotation
					JOINT left_foot_ee
					{
						OFFSET	-22.5	-16.5	-42.2
						CHANNELS 3  Xrotation Yrotation Zrotation
						End Site
						{
							OFFSET	1	0	0
						}
					}
				}
			}
		}
	}
	JOINT right_hip
	{
		OFFSET	82.8	-127.5	0.300001
		CHANNELS 3  Xrotation Yrotation Zrotation
		JOINT right_knee
		{
			OFFSET	28.2	-396.7	2.2
			CHANNELS 3  Xrotation Yrotation Zrotation
			JOINT right_ankle
			{
				OFFSET	11.7	-411.3	35.4
				CHANNELS 3  Xrotation Yrotation Zrotation
				JOINT right_toes
				{
					OFFSET	0	-60	-88.6
					CHANNELS 3  Xrotation Yrotation Zrotation
					JOINT right_foot_ee
					{
						OFFSET	22.5	-16.5	-42.2
						CHANNELS 3  Xrotation Yrotation Zrotation
						End Site
						{
							OFFSET	1	0	0
						}
					}
				}
			}
		}
	}
}
MOTION
Frames: 6
Frame Time: 0.02
3177.02 653.055 -1669.29 35.2119417522 87.6152818011 -35.6158718419 -1.93203 0.299249 0.284151 -1.93202 0.280562 0.302617 -1.93047 0.198624 0.361719 -1.93056 0.253258 0.325811 -0.365039 5.33694 2.18578 -0.322049 7.75733 2.92832 -0.0 0.0 -0.0 1.4622 8.16022 3.54819 -25.8766 -11.9089 70.5461 0.191188 -5.41043 0.0090336 -37.5964 -2.69925 3.88274 1.90581 20.7752 20.0486 -0.0 0.0 -0.0 2.44536 -5.09126 -5.08121 26.6486 34.0435 -73.4174 4.41901 65.4273 -2.83927 52.0622 1.12037 6.32958 -0.618375 -7.13445 1.04935 0.0 0.0 0.0 28.1348 -2.36308 3.00797 -1.82447 0.0708105 0.271027 0.282634 24.1002 -0.0429343 -19.468 0.0 0.0 -0.0 0.0 -0.0 -24.9544 9.63514 -5.48164 -3.90941 -0.141105 -0.583266 23.2809 -4.82334 3.13089 -24.5774 0.0 0.0 0.0 0.0 0.0 
3146.76806588 663.281 -1662.86174338 1.92401117497 86.1508282253 -2.74987874273 -1.4285 0.270736 0.30454 -1.42848 0.250809 0.32115 -1.427 0.168525 0.371 -1.42712 0.225003 0.339729 -2.34202 7.41198 4.46779 -2.26113 9.89755 5.67954 -0.0 0.0 -0.0 1.88609 7.09467 4.21467 -24.0616 -12.5491 71.4332 0.19626 -5.55307 0.0095181 -37.4148 -2.68052 3.86887 0.51442 15.5919 9.58073 -0.0 0.0 -0.0 2.75765 -5.88311 -5.70299 20.3732 34.3128 -70.7393 4.98999 67.9497 -3.36377 53.1631 1.20445 6.44279 -0.941683 -12.8212 0.653706 0.0 0.0 0.0 27.9944 -2.01277 3.46917 -2.58786 0.097868 0.38506 2.76192 28.5064 -0.427707 -21.5417 0.0 0.0 -0.0 0.0 -0.0 -22.1069 9.51618 -3.64169 -10.3453 -0.285781 -1.5598 24.4256 -5.66438 3.26441 -24.5989 0.0 0.0 0.0 0.0 0.0 
3125.5859345 670.386 -1661.71135855 -2.64601431169 84.3041617479 2.12774817878 -1.3921 0.445381 0.492869 -1.39206 0.413117 0.52021 -1.38812 0.280061 0.602369 -1.38843 0.371677 0.550581 -4.15249 8.45581 6.08973 -4.03839 10.827 7.60131 -0.0 0.0 -0.0 2.36121 6.45974 5.0221 -22.87 -12.7441 71.0128 0.265223 -7.48503 0.0173489 -36.9718 -2.63502 3.8348 -0.171656 13.8331 4.60256 -0.0 0.0 -0.0 2.49689 -6.91428 -5.29669 18.2458 34.5474 -71.2584 5.12024 68.4573 -3.4847 53.9593 1.26661 6.52365 -0.875151 -15.0343 -0.723486 0.0 0.0 0.0 27.9934 -1.54702 2.57789 -6.52928 0.21324 0.978822 8.21643 28.5639 -1.25477 -19.4044 0.0 0.0 -0.0 0.0 -0.0 -20.0291 9.53745 -3.05169 -13.7975 -0.317955 -2.08843 23.8384 -6.46503 3.195 -24.6139 0.0 0.0 0.0 0.0 0.0 
3110.56982219 673.864 -1659.12455804 -4.07199605997 82.8571330961 3.63429124215 -1.19715 0.39841 0.473534 -1.1971 0.367471 0.497925 -1.19375 0.242819 0.569212 -1.19405 0.329667 0.523721 -4.8554 8.77844 6.85829 -4.72134 10.9614 8.47585 -0.0 0.0 -0.0 2.68998 5.89428 5.58062 -21.5738 -13.0872 71.3222 0.285409 -8.0475 0.0200766 -36.902 -2.62787 3.82939 -0.347025 13.6202 3.41672 -0.0 0.0 -0.0 2.3747 -6.8908 -5.07571 17.5892 34.9745 -72.0142 4.60267 66.2961 -3.00687 53.7956 1.25374 6.50709 -1.0536 -15.8961 0.00180972 0.0 0.0 0.0 27.7036 -1.16487 2.26532 -7.04532 0.225311 1.05709 8.88461 28.3767 -1.35253 -19.4759 0.0 0.0 -0.0 0.0 -0.0 -18.5182 9.70629 -2.28127 -17.8895 -0.314789 -2.71612 24.3436 -7.37927 3.25449 -24.1053 0.0 0.0 0.0 0.0 0.0 
3075.61986818 683.621 -1659.18346629 -8.47552810181 79.8192180952 8.34397399694 -0.709359 0.249165 0.303256 -0.709337 0.229363 0.318497 -0.708002 0.152848 0.361504 -0.708124 0.208022 0.332828 -6.44575 9.90792 9.15059 -6.22797 11.6698 11.0748 -0.0 0.0 -0.0 3.01072 5.05073 6.11623 -19.2815 -13.4836 71.7153 0.340297 -9.56876 0.0284821 -36.4386 -2.58061 3.79332 -0.675776 12.814 1.0155 -0.0 0.0 -0.0 2.07461 -6.09225 -4.47758 15.2962 36.2192 -73.5229 3.31992 58.6846 -1.86663 53.1999 1.2073 6.44654 -1.59121 -18.4371 2.12474 0.0 0.0 0.0 26.7985 -0.130269 1.37739 -9.00856 0.264777 1.35576 11.1931 28.0228 -1.68813 -19.8204 0.0 0.0 -0.0 0.0 -0.0 -11.801 10.3308 -1.21668 -31.1259 0.000703189 -4.71843 25.118 -10.2471 3.35097 -22.5286 0.0 0.0 0.0 0.0 0.0 
3023.62237769 696.077 -1665.63746388 -3.62064286924 79.3467376587 3.55839895009 -0.296678 -0.057174 -0.0105756 -0.296679 -0.0563852 -0.0141923 -0.296666 -0.052009 -0.0259958 -0.296662 -0.0554618 -0.0174557 -8.7848 10.6474 11.8594 -8.43228 11.688 14.0429 -0.0 0.0 -0.0 3.32097 3.92272 6.6274 -16.9322 -13.6355 70.9836 0.407335 -11.4083 0.0406873 -36.249 -2.56137 3.77845 -1.30492 12.1178 -3.25838 -0.0 0.0 -0.0 1.55763 -5.36298 -3.47893 10.3291 36.7906 -73.661 2.21622 47.6642 -0.979051 52.4861 1.15249 6.37337 -2.23927 -20.7911 4.85289 0.0 0.0 0.0 24.0821 1.15068 0.716285 -12.1315 0.306406 1.83308 14.3586 27.874 -2.14084 -20.4316 0.0 0.0 -0.0 0.0 -0.0 -4.87161 10.9849 -0.253946 -46.9438 0.966533 -6.94153 27.7359 -13.234 3.66734 -20.1455 0.0 0.0 0.0 0.0 0.0 
